<svg class="h-screen object-fit w-full" width="1169" height="1022" viewBox="0 0 1169 1022" fill="none"
    xmlns="http://www.w3.org/2000/svg">
    <path
        d="M294.904 1022L344.792 997.642C394.272 973.114 494.049 924.399 525.128 875.854C556.615 827.309 519.812 778.934 477.693 730.389C435.164 681.844 387.729 633.129 420.852 584.243C454.384 535.358 568.882 486.642 585.239 437.757C601.596 388.871 519.812 340.156 437.209 291.611C355.015 243.066 271.595 194.691 266.279 146.146C260.963 97.601 332.934 48.8857 369.328 24.3577L405.313 0H1170V24.3577C1170 48.8857 1170 97.601 1170 146.146C1170 194.691 1170 243.066 1170 291.611C1170 340.156 1170 388.871 1170 437.757C1170 486.642 1170 535.358 1170 584.243C1170 633.129 1170 681.844 1170 730.389C1170 778.934 1170 827.309 1170 875.854C1170 924.399 1170 973.114 1170 997.642V1022H294.904Z"
        fill="#1E293B" />
    <g clip-path="url(#clip0_0_1)">
        <path d="M380.339 539.582L383.234 616.301H376.187V624.986H395.883V616.301H390.138L390.548 539.582H380.339Z"
            fill="#3F3D56" />
        <path
            d="M372.739 603.997H372.739C375.737 603.997 378.168 606.427 378.168 609.425V631.862C378.168 634.86 375.737 637.29 372.739 637.29H372.739C369.741 637.29 367.311 634.86 367.311 631.862V609.425C367.311 606.427 369.741 603.997 372.739 603.997Z"
            fill="#3F3D56" />
        <path
            d="M400.242 603.997H400.242C403.24 603.997 405.671 606.427 405.671 609.425V631.862C405.671 634.86 403.24 637.29 400.242 637.29H400.242C397.244 637.29 394.814 634.86 394.814 631.862V609.425C394.814 606.427 397.244 603.997 400.242 603.997Z"
            fill="#3F3D56" />
        <path d="M444.392 491.781L332.932 486.715L350.303 478.754L448.011 480.201L444.392 491.781Z"
            fill="#F4F5F5" />
        <path
            d="M0 503.032L13.4609 497.965L431.364 508.822L448.735 500.86L441.497 550.076L109.538 514.704L0 503.032Z"
            fill="#F4F5F5" />
        <path d="M107.479 531.62L109.538 514.704L441.497 550.076L439.688 575.046L107.479 531.62Z" fill="#3F3D56" />
        <path
            d="M330.761 581.56C349.748 581.56 365.14 565.196 365.14 545.01C365.14 524.824 349.748 508.46 330.761 508.46C311.774 508.46 296.382 524.824 296.382 545.01C296.382 565.196 311.774 581.56 330.761 581.56Z"
            fill="#3F3D56" />
        <path
            d="M330.761 563.828C344.751 563.828 356.093 552.486 356.093 538.496C356.093 524.506 344.751 513.164 330.761 513.164C316.771 513.164 305.429 524.506 305.429 538.496C305.429 552.486 316.771 563.828 330.761 563.828Z"
            fill="#F4F5F5" />
        <path d="M613.391 539.582L610.496 616.301H617.543V624.986H597.848V616.301H603.592L603.182 539.582H613.391Z"
            fill="#3F3D56" />
        <path
            d="M620.991 603.997H620.991C617.993 603.997 615.563 606.427 615.563 609.425V631.862C615.563 634.86 617.993 637.29 620.991 637.29H620.991C623.989 637.29 626.419 634.86 626.419 631.862V609.425C626.419 606.427 623.989 603.997 620.991 603.997Z"
            fill="#3F3D56" />
        <path
            d="M593.488 603.997H593.488C590.49 603.997 588.06 606.427 588.06 609.425V631.862C588.06 634.86 590.49 637.29 593.488 637.29H593.488C596.486 637.29 598.916 634.86 598.916 631.862V609.425C598.916 606.427 596.486 603.997 593.488 603.997Z"
            fill="#3F3D56" />
        <path d="M549.338 491.781L660.798 486.715L643.428 478.754L545.719 480.201L549.338 491.781Z"
            fill="#F4F5F5" />
        <path d="M509.444 476.188L504.378 364.728L496.416 382.099L497.864 479.807L509.444 476.188Z"
            fill="#F4F5F5" />
        <path
            d="M993.73 503.032L980.269 497.965L562.366 508.822L544.996 500.86L552.233 550.076L884.192 514.704L993.73 503.032Z"
            fill="#F4F5F5" />
        <path d="M886.251 531.62L884.192 514.704L552.233 550.076L554.043 575.046L886.251 531.62Z" fill="#3F3D56" />
        <path
            d="M662.969 581.56C681.956 581.56 697.348 565.196 697.348 545.01C697.348 524.824 681.956 508.46 662.969 508.46C643.982 508.46 628.591 524.824 628.591 545.01C628.591 565.196 643.982 581.56 662.969 581.56Z"
            fill="#3F3D56" />
        <path
            d="M662.969 563.828C676.96 563.828 688.301 552.486 688.301 538.496C688.301 524.506 676.96 513.164 662.969 513.164C648.979 513.164 637.638 524.506 637.638 538.496C637.638 552.486 648.979 563.828 662.969 563.828Z"
            fill="#F4F5F5" />
        <path
            d="M560.014 477.897L558.371 490.004L557.517 555.172C557.452 560.021 556.865 564.812 555.765 569.459C552.595 582.993 545.191 595.304 534.255 604.229C524.332 612.335 510.798 618.472 492.884 617.387C445.116 614.491 440.896 573.838 440.896 573.838L442.699 500.115L442.945 490.004L445.116 471.76C445.116 471.76 450.906 420.373 504.465 421.82C558.023 423.268 560.014 477.897 560.014 477.897V477.897Z"
            fill="#F4F5F5" />
        <path
            d="M456.696 460.903L467.553 443.533L481.304 439.19H528.349L539.929 443.533L550.438 460.903L531.244 452.218H477.4L456.696 460.903Z"
            fill="#E6E6E6" />
        <path d="M496.509 585.785L498.366 635.001H493.846V640.573H506.48V635.001H502.795L503.058 585.785H496.509Z"
            fill="#3F3D56" />
        <path
            d="M491.634 627.108C493.557 627.108 495.116 628.667 495.116 630.59V644.984C495.116 646.907 493.557 648.466 491.634 648.466C489.71 648.466 488.151 646.907 488.151 644.984V630.59C488.151 628.667 489.71 627.108 491.634 627.108Z"
            fill="#3F3D56" />
        <path
            d="M509.277 627.108C511.2 627.108 512.759 628.667 512.759 630.59V644.984C512.759 646.907 511.2 648.466 509.277 648.466C507.354 648.466 505.795 646.907 505.795 644.984V630.59C505.795 628.667 507.354 627.108 509.277 627.108V627.108Z"
            fill="#3F3D56" />
        <path d="M483.036 428.522L473.037 464.523L474.964 465.058L484.963 429.058L483.036 428.522Z"
            fill="#F4F5F5" />
        <path d="M528.379 434.266L526.416 434.652L533.621 471.314L535.583 470.928L528.379 434.266Z"
            fill="#F4F5F5" />
        <path
            d="M374.602 419.306C381.782 419.306 387.602 413.486 387.602 406.306C387.602 399.127 381.782 393.306 374.602 393.306C367.422 393.306 361.602 399.127 361.602 406.306C361.602 413.486 367.422 419.306 374.602 419.306Z"
            fill="#F4F5F5" />
    </g>
    <defs>
        <clipPath id="clip0_0_1">
            <rect width="993.73" height="422.322" fill="white" transform="translate(0 260)" />
        </clipPath>
    </defs>
</svg>